<svg xmlns="http://www.w3.org/2000/svg" xmlns:xlink="http://www.w3.org/1999/xlink" width="2000" zoomAndPan="magnify" viewBox="0 0 1500 1499.999933" height="2000" preserveAspectRatio="xMidYMid meet" version="1.0"><defs><g/><clipPath id="e7b2c5d6db"><path d="M 24.816406 551.65625 L 1475.316406 551.65625 L 1475.316406 814.90625 L 24.816406 814.90625 Z M 24.816406 551.65625 " clip-rule="nonzero"/></clipPath><clipPath id="d09ed0e115"><path d="M 470 139 L 637 139 L 637 317.839844 L 470 317.839844 Z M 470 139 " clip-rule="nonzero"/></clipPath><clipPath id="a30ef2a43d"><rect x="0" width="751" y="0" height="318"/></clipPath><clipPath id="0440c79f67"><rect x="0" width="1311" y="0" height="113"/></clipPath></defs><g clip-path="url(#e7b2c5d6db)"><path fill="#000000" d="M 1475.316406 814.882812 L 54.480469 814.882812 C 38.125 814.882812 24.816406 801.554688 24.816406 785.179688 L 24.816406 632.320312 C 24.816406 615.945312 38.125 602.617188 54.480469 602.617188 L 105.34375 602.617188 C 117.019531 602.617188 126.550781 593.074219 126.550781 581.386719 C 126.550781 565.007812 139.859375 551.683594 156.210938 551.683594 L 308.871094 551.683594 C 325.222656 551.683594 338.535156 565.007812 338.535156 581.386719 C 338.535156 593.074219 348.0625 602.617188 359.738281 602.617188 L 410.605469 602.617188 C 426.957031 602.617188 440.265625 615.945312 440.265625 632.320312 L 440.265625 662.023438 L 431.808594 662.023438 L 431.808594 632.320312 C 431.808594 620.632812 422.277344 611.089844 410.605469 611.089844 L 359.792969 611.089844 C 343.441406 611.089844 330.128906 597.761719 330.128906 581.386719 C 330.128906 569.695312 320.601562 560.152344 308.925781 560.152344 L 156.269531 560.152344 C 144.59375 560.152344 135.066406 569.695312 135.066406 581.386719 C 135.066406 597.761719 121.757812 611.089844 105.402344 611.089844 L 54.480469 611.089844 C 42.804688 611.089844 33.273438 620.632812 33.273438 632.320312 L 33.273438 785.179688 C 33.273438 796.871094 42.804688 806.414062 54.480469 806.414062 L 1475.257812 806.414062 L 1475.257812 814.882812 Z M 302.214844 707.480469 C 302.214844 669.023438 270.972656 637.742188 232.570312 637.742188 C 194.164062 637.742188 162.921875 669.023438 162.921875 707.480469 C 162.921875 745.933594 194.164062 777.21875 232.570312 777.21875 C 270.972656 777.21875 302.214844 745.933594 302.214844 707.480469 Z M 293.699219 707.480469 C 293.699219 741.25 266.292969 768.691406 232.570312 768.691406 C 198.847656 768.691406 171.4375 741.25 171.4375 707.480469 C 171.4375 673.710938 198.847656 646.269531 232.570312 646.269531 C 266.292969 646.269531 293.699219 673.769531 293.699219 707.480469 Z M 121.757812 654.171875 C 121.757812 645.136719 114.425781 637.742188 105.34375 637.742188 C 96.324219 637.742188 88.933594 645.082031 88.933594 654.171875 C 88.933594 663.207031 96.265625 670.605469 105.34375 670.605469 C 114.425781 670.605469 121.757812 663.265625 121.757812 654.171875 Z M 113.296875 654.171875 C 113.296875 658.523438 109.746094 662.078125 105.402344 662.078125 C 101.058594 662.078125 97.507812 658.523438 97.507812 654.171875 C 97.507812 649.824219 101.058594 646.269531 105.402344 646.269531 C 109.746094 646.269531 113.296875 649.824219 113.296875 654.171875 Z M 113.296875 654.171875 " fill-opacity="1" fill-rule="nonzero"/></g><g transform="matrix(1, 0, 0, 1, 556, 532)"><g clip-path="url(#a30ef2a43d)"><g fill="#000000" fill-opacity="1"><g transform="translate(2.857733, 203.06879)"><g><path d="M 95.640625 -18.28125 C 97.117188 -18.15625 98.597656 -18 100.078125 -17.8125 C 101.554688 -17.632812 103.28125 -17.484375 105.25 -17.359375 C 104.257812 -15.390625 103.085938 -14.097656 101.734375 -13.484375 C 100.378906 -12.867188 99.085938 -12.3125 97.859375 -11.8125 C 94.898438 -10.457031 92.929688 -8.242188 91.953125 -5.171875 C 89.734375 1.972656 86.347656 8.25 81.796875 13.65625 C 77.242188 19.070312 72.007812 23.9375 66.09375 28.25 C 59.445312 33.175781 52.492188 37.484375 45.234375 41.171875 C 37.972656 44.867188 30.460938 48.070312 22.703125 50.78125 C 21.597656 51.269531 20.429688 51.664062 19.203125 51.96875 C 17.972656 52.28125 16.742188 52.5625 15.515625 52.8125 C 11.078125 53.550781 6.953125 52.992188 3.140625 51.140625 C 1.660156 50.398438 0.703125 49.382812 0.265625 48.09375 C -0.160156 46.800781 -0.00390625 45.476562 0.734375 44.125 C 1.960938 41.914062 3.316406 40.132812 4.796875 38.78125 C 6.523438 37.175781 8.28125 35.570312 10.0625 33.96875 C 11.84375 32.375 13.71875 30.835938 15.6875 29.359375 C 25.78125 21.722656 36.085938 14.394531 46.609375 7.375 C 57.140625 0.363281 68.191406 -5.785156 79.765625 -11.078125 C 82.722656 -12.554688 84.382812 -14.894531 84.75 -18.09375 C 85.113281 -22.28125 84.925781 -26.375 84.1875 -30.375 C 83.457031 -34.375 82.226562 -38.28125 80.5 -42.09375 C 79.757812 -43.695312 78.988281 -45.328125 78.1875 -46.984375 C 77.394531 -48.648438 76.628906 -50.285156 75.890625 -51.890625 C 73.054688 -58.285156 73.734375 -64.128906 77.921875 -69.421875 C 79.640625 -71.640625 81.453125 -73.796875 83.359375 -75.890625 C 85.273438 -77.984375 87.15625 -80.078125 89 -82.171875 C 96.75 -90.410156 104.070312 -98.960938 110.96875 -107.828125 C 117.863281 -116.691406 124.019531 -126.109375 129.4375 -136.078125 C 131.03125 -138.910156 132.441406 -141.800781 133.671875 -144.75 C 134.910156 -147.707031 136.144531 -150.664062 137.375 -153.625 C 137.988281 -155.46875 138.234375 -156.789062 138.109375 -157.59375 C 137.984375 -158.394531 137.492188 -160.148438 136.640625 -162.859375 C 134.910156 -162.242188 133.304688 -161.410156 131.828125 -160.359375 C 130.359375 -159.316406 129.003906 -158.175781 127.765625 -156.9375 C 123.703125 -152.875 119.609375 -148.8125 115.484375 -144.75 C 111.367188 -140.695312 107.398438 -136.515625 103.578125 -132.203125 C 95.210938 -122.472656 87.273438 -112.40625 79.765625 -102 C 72.253906 -91.601562 64.804688 -81.175781 57.421875 -70.71875 C 52.867188 -64.195312 48.253906 -57.671875 43.578125 -51.140625 C 38.898438 -44.617188 34.222656 -38.097656 29.546875 -31.578125 C 29.046875 -30.835938 28.519531 -30.160156 27.96875 -29.546875 C 27.414062 -28.929688 26.894531 -28.253906 26.40625 -27.515625 C 24.4375 -25.171875 21.664062 -24.1875 18.09375 -24.5625 C 13.164062 -24.925781 11.503906 -27.328125 13.109375 -31.765625 C 14.953125 -37.054688 16.859375 -42.347656 18.828125 -47.640625 C 20.796875 -52.929688 22.765625 -58.222656 24.734375 -63.515625 C 29.046875 -74.960938 33.203125 -86.472656 37.203125 -98.046875 C 41.203125 -109.617188 44.742188 -121.3125 47.828125 -133.125 C 49.296875 -138.664062 50.644531 -144.265625 51.875 -149.921875 C 53.113281 -155.585938 54.039062 -161.3125 54.65625 -167.09375 C 54.78125 -168.695312 54.867188 -170.359375 54.921875 -172.078125 C 54.984375 -173.804688 54.957031 -175.472656 54.84375 -177.078125 C 54.84375 -177.691406 54.65625 -178.335938 54.28125 -179.015625 C 53.914062 -179.691406 53.546875 -180.457031 53.171875 -181.3125 C 50.585938 -179.21875 48.25 -177 46.15625 -174.65625 C 44.0625 -172.320312 42.15625 -169.863281 40.4375 -167.28125 C 34.53125 -159.15625 29.207031 -150.722656 24.46875 -141.984375 C 19.726562 -133.242188 15.445312 -124.195312 11.625 -114.84375 C 11.007812 -113.25 10.425781 -111.679688 9.875 -110.140625 C 9.320312 -108.597656 8.675781 -107.03125 7.9375 -105.4375 C 7.8125 -104.9375 7.535156 -104.472656 7.109375 -104.046875 C 6.679688 -103.617188 6.160156 -103.09375 5.546875 -102.46875 C 5.171875 -103.207031 4.796875 -103.820312 4.421875 -104.3125 C 4.054688 -104.8125 3.9375 -105.304688 4.0625 -105.796875 C 4.1875 -108.140625 4.304688 -110.507812 4.421875 -112.90625 C 4.546875 -115.3125 4.859375 -117.679688 5.359375 -120.015625 C 7.566406 -130.472656 10.882812 -140.441406 15.3125 -149.921875 C 19.75 -159.398438 25.351562 -168.328125 32.125 -176.703125 C 33.601562 -178.546875 35.234375 -180.265625 37.015625 -181.859375 C 38.804688 -183.460938 40.5625 -185.066406 42.28125 -186.671875 C 44.25 -188.273438 46.367188 -189.382812 48.640625 -190 C 50.921875 -190.613281 53.296875 -190.796875 55.765625 -190.546875 C 59.578125 -190.304688 62.585938 -189.226562 64.796875 -187.3125 C 67.015625 -185.40625 68.3125 -182.546875 68.6875 -178.734375 C 69.050781 -175.648438 69.203125 -172.539062 69.140625 -169.40625 C 69.085938 -166.269531 68.8125 -163.222656 68.3125 -160.265625 C 67.082031 -154.109375 65.789062 -148.015625 64.4375 -141.984375 C 63.082031 -135.953125 61.484375 -129.984375 59.640625 -124.078125 C 57.179688 -116.203125 54.566406 -108.351562 51.796875 -100.53125 C 49.023438 -92.71875 46.347656 -84.875 43.765625 -77 C 43.390625 -75.882812 42.984375 -74.800781 42.546875 -73.75 C 42.117188 -72.707031 41.722656 -71.632812 41.359375 -70.53125 C 42.460938 -70.40625 43.226562 -70.679688 43.65625 -71.359375 C 44.09375 -72.035156 44.5 -72.679688 44.875 -73.296875 C 51.269531 -82.035156 57.601562 -90.804688 63.875 -99.609375 C 70.15625 -108.410156 76.5625 -117.179688 83.09375 -125.921875 C 87.394531 -131.710938 91.976562 -137.253906 96.84375 -142.546875 C 101.707031 -147.835938 106.847656 -152.820312 112.265625 -157.5 C 114.234375 -159.21875 116.289062 -160.878906 118.4375 -162.484375 C 120.59375 -164.085938 122.78125 -165.6875 125 -167.28125 C 127.457031 -168.882812 130.039062 -169.898438 132.75 -170.328125 C 135.457031 -170.765625 138.289062 -170.734375 141.25 -170.234375 C 147.644531 -169.003906 150.785156 -165.003906 150.671875 -158.234375 C 150.546875 -155.648438 150.082031 -153.15625 149.28125 -150.75 C 148.476562 -148.351562 147.523438 -146.046875 146.421875 -143.828125 C 140.628906 -132.140625 133.675781 -121.25 125.5625 -111.15625 C 121.613281 -106.101562 117.578125 -101.207031 113.453125 -96.46875 C 109.335938 -91.726562 105.1875 -86.960938 101 -82.171875 C 99.269531 -79.953125 97.453125 -77.796875 95.546875 -75.703125 C 93.640625 -73.609375 91.828125 -71.453125 90.109375 -69.234375 C 87.398438 -66.160156 85.796875 -62.960938 85.296875 -59.640625 C 84.804688 -56.316406 85.671875 -52.804688 87.890625 -49.109375 C 88.378906 -48.253906 88.835938 -47.363281 89.265625 -46.4375 C 89.703125 -45.507812 90.101562 -44.617188 90.46875 -43.765625 C 91.945312 -40.554688 93.117188 -37.257812 93.984375 -33.875 C 94.847656 -30.488281 95.28125 -27.015625 95.28125 -23.453125 C 95.15625 -22.585938 95.148438 -21.753906 95.265625 -20.953125 C 95.390625 -20.148438 95.515625 -19.257812 95.640625 -18.28125 Z M 24.375 37.296875 C 23.257812 38.285156 22.148438 39.363281 21.046875 40.53125 C 19.941406 41.695312 18.648438 42.957031 17.171875 44.3125 C 18.273438 44.5625 19.039062 44.71875 19.46875 44.78125 C 19.90625 44.84375 20.25 44.875 20.5 44.875 C 21.601562 44.625 22.648438 44.3125 23.640625 43.9375 C 38.773438 38.644531 52.3125 30.894531 64.25 20.6875 C 69.789062 16 74.222656 10.582031 77.546875 4.4375 C 77.921875 3.820312 78.226562 3.082031 78.46875 2.21875 C 78.71875 1.351562 79.085938 0.304688 79.578125 -0.921875 C 78.597656 -0.554688 77.796875 -0.28125 77.171875 -0.09375 C 76.554688 0.09375 76.066406 0.304688 75.703125 0.546875 C 66.710938 6.085938 57.941406 11.90625 49.390625 18 C 40.835938 24.09375 32.5 30.523438 24.375 37.296875 Z M 24.375 37.296875 "/></g></g></g><g fill="#000000" fill-opacity="1"><g transform="translate(119.729887, 203.06879)"><g><path d="M 43.9375 -19.015625 C 45.050781 -19.390625 45.820312 -19.546875 46.25 -19.484375 C 46.6875 -19.421875 47.582031 -19.019531 48.9375 -18.28125 C 47.457031 -16.675781 46.097656 -15.503906 44.859375 -14.765625 C 43.628906 -14.023438 41.96875 -13.53125 39.875 -13.28125 C 37.789062 -13.039062 34.71875 -12.859375 30.65625 -12.734375 C 28.925781 -11.140625 27.289062 -9.601562 25.75 -8.125 C 24.21875 -6.644531 22.710938 -5.164062 21.234375 -3.6875 C 19.390625 -1.84375 17.484375 -0.242188 15.515625 1.109375 C 13.546875 2.460938 11.453125 3.320312 9.234375 3.6875 C 7.753906 3.9375 6.273438 4.03125 4.796875 3.96875 C 3.316406 3.90625 1.898438 3.691406 0.546875 3.328125 C -4.128906 1.847656 -5.910156 -2.335938 -4.796875 -9.234375 C -4.429688 -11.691406 -3.816406 -14 -2.953125 -16.15625 C -2.085938 -18.3125 -1.101562 -20.375 0 -22.34375 C 0.863281 -23.9375 1.785156 -25.535156 2.765625 -27.140625 C 3.753906 -28.742188 4.800781 -30.40625 5.90625 -32.125 C 5.78125 -35.695312 6.394531 -38.835938 7.75 -41.546875 C 9.101562 -44.253906 10.828125 -46.773438 12.921875 -49.109375 C 15.015625 -51.328125 17.164062 -53.234375 19.375 -54.828125 C 21.59375 -56.429688 24 -57.539062 26.59375 -58.15625 C 28.5625 -58.53125 30.222656 -58.65625 31.578125 -58.53125 C 37.734375 -57.664062 40.6875 -53.050781 40.4375 -44.6875 C 40.3125 -41.363281 39.847656 -38.160156 39.046875 -35.078125 C 38.242188 -32.003906 37.226562 -28.988281 36 -26.03125 C 35.632812 -24.800781 35.203125 -23.539062 34.703125 -22.25 C 34.210938 -20.957031 33.660156 -19.632812 33.046875 -18.28125 C 35.015625 -17.539062 36.890625 -17.320312 38.671875 -17.625 C 40.460938 -17.9375 42.21875 -18.398438 43.9375 -19.015625 Z M 5.90625 -0.546875 C 7.507812 -0.796875 9.359375 -1.660156 11.453125 -3.140625 C 13.546875 -4.617188 15.546875 -6.429688 17.453125 -8.578125 C 19.359375 -10.734375 20.863281 -12.921875 21.96875 -15.140625 C 20.863281 -15.878906 19.753906 -16.585938 18.640625 -17.265625 C 17.535156 -17.941406 16.492188 -18.710938 15.515625 -19.578125 C 14.398438 -20.316406 13.347656 -21.175781 12.359375 -22.15625 C 11.378906 -23.144531 10.273438 -24.128906 9.046875 -25.109375 C 7.441406 -23.015625 6.207031 -20.796875 5.34375 -18.453125 C 4.488281 -16.117188 3.691406 -13.722656 2.953125 -11.265625 C 2.703125 -10.148438 2.546875 -8.945312 2.484375 -7.65625 C 2.429688 -6.363281 2.40625 -5.101562 2.40625 -3.875 C 2.519531 -1.289062 3.6875 -0.179688 5.90625 -0.546875 Z M 26.03125 -20.6875 C 28.375 -24.625 30.191406 -28.710938 31.484375 -32.953125 C 32.773438 -37.203125 33.359375 -41.726562 33.234375 -46.53125 C 33.234375 -47.882812 33.078125 -49.207031 32.765625 -50.5 C 32.460938 -51.789062 31.695312 -52.804688 30.46875 -53.546875 C 27.882812 -52.441406 25.609375 -50.78125 23.640625 -48.5625 C 21.671875 -46.34375 19.882812 -43.695312 18.28125 -40.625 C 17.664062 -39.269531 17.296875 -37.882812 17.171875 -36.46875 C 17.046875 -35.050781 17.171875 -33.539062 17.546875 -31.9375 C 18.285156 -29.113281 19.359375 -26.804688 20.765625 -25.015625 C 22.179688 -23.234375 23.9375 -21.789062 26.03125 -20.6875 Z M 26.03125 -20.6875 "/></g></g></g><g fill="#000000" fill-opacity="1"><g transform="translate(163.672343, 203.06879)"><g><path d="M 43.9375 -19.015625 C 45.050781 -19.390625 45.820312 -19.546875 46.25 -19.484375 C 46.6875 -19.421875 47.582031 -19.019531 48.9375 -18.28125 C 47.457031 -16.675781 46.097656 -15.503906 44.859375 -14.765625 C 43.628906 -14.023438 41.96875 -13.53125 39.875 -13.28125 C 37.789062 -13.039062 34.71875 -12.859375 30.65625 -12.734375 C 28.925781 -11.140625 27.289062 -9.601562 25.75 -8.125 C 24.21875 -6.644531 22.710938 -5.164062 21.234375 -3.6875 C 19.390625 -1.84375 17.484375 -0.242188 15.515625 1.109375 C 13.546875 2.460938 11.453125 3.320312 9.234375 3.6875 C 7.753906 3.9375 6.273438 4.03125 4.796875 3.96875 C 3.316406 3.90625 1.898438 3.691406 0.546875 3.328125 C -4.128906 1.847656 -5.910156 -2.335938 -4.796875 -9.234375 C -4.429688 -11.691406 -3.816406 -14 -2.953125 -16.15625 C -2.085938 -18.3125 -1.101562 -20.375 0 -22.34375 C 0.863281 -23.9375 1.785156 -25.535156 2.765625 -27.140625 C 3.753906 -28.742188 4.800781 -30.40625 5.90625 -32.125 C 5.78125 -35.695312 6.394531 -38.835938 7.75 -41.546875 C 9.101562 -44.253906 10.828125 -46.773438 12.921875 -49.109375 C 15.015625 -51.328125 17.164062 -53.234375 19.375 -54.828125 C 21.59375 -56.429688 24 -57.539062 26.59375 -58.15625 C 28.5625 -58.53125 30.222656 -58.65625 31.578125 -58.53125 C 37.734375 -57.664062 40.6875 -53.050781 40.4375 -44.6875 C 40.3125 -41.363281 39.847656 -38.160156 39.046875 -35.078125 C 38.242188 -32.003906 37.226562 -28.988281 36 -26.03125 C 35.632812 -24.800781 35.203125 -23.539062 34.703125 -22.25 C 34.210938 -20.957031 33.660156 -19.632812 33.046875 -18.28125 C 35.015625 -17.539062 36.890625 -17.320312 38.671875 -17.625 C 40.460938 -17.9375 42.21875 -18.398438 43.9375 -19.015625 Z M 5.90625 -0.546875 C 7.507812 -0.796875 9.359375 -1.660156 11.453125 -3.140625 C 13.546875 -4.617188 15.546875 -6.429688 17.453125 -8.578125 C 19.359375 -10.734375 20.863281 -12.921875 21.96875 -15.140625 C 20.863281 -15.878906 19.753906 -16.585938 18.640625 -17.265625 C 17.535156 -17.941406 16.492188 -18.710938 15.515625 -19.578125 C 14.398438 -20.316406 13.347656 -21.175781 12.359375 -22.15625 C 11.378906 -23.144531 10.273438 -24.128906 9.046875 -25.109375 C 7.441406 -23.015625 6.207031 -20.796875 5.34375 -18.453125 C 4.488281 -16.117188 3.691406 -13.722656 2.953125 -11.265625 C 2.703125 -10.148438 2.546875 -8.945312 2.484375 -7.65625 C 2.429688 -6.363281 2.40625 -5.101562 2.40625 -3.875 C 2.519531 -1.289062 3.6875 -0.179688 5.90625 -0.546875 Z M 26.03125 -20.6875 C 28.375 -24.625 30.191406 -28.710938 31.484375 -32.953125 C 32.773438 -37.203125 33.359375 -41.726562 33.234375 -46.53125 C 33.234375 -47.882812 33.078125 -49.207031 32.765625 -50.5 C 32.460938 -51.789062 31.695312 -52.804688 30.46875 -53.546875 C 27.882812 -52.441406 25.609375 -50.78125 23.640625 -48.5625 C 21.671875 -46.34375 19.882812 -43.695312 18.28125 -40.625 C 17.664062 -39.269531 17.296875 -37.882812 17.171875 -36.46875 C 17.046875 -35.050781 17.171875 -33.539062 17.546875 -31.9375 C 18.285156 -29.113281 19.359375 -26.804688 20.765625 -25.015625 C 22.179688 -23.234375 23.9375 -21.789062 26.03125 -20.6875 Z M 26.03125 -20.6875 "/></g></g></g><g fill="#000000" fill-opacity="1"><g transform="translate(207.614798, 203.06879)"><g><path d="M 96.9375 -118.359375 C 97.675781 -118.359375 98.382812 -118.140625 99.0625 -117.703125 C 99.738281 -117.273438 100.445312 -116.878906 101.1875 -116.515625 C 89.238281 -115.648438 77.382812 -114.628906 65.625 -113.453125 C 53.875 -112.285156 42.03125 -111.148438 30.09375 -110.046875 C 29.726562 -109.304688 29.359375 -108.566406 28.984375 -107.828125 C 28.617188 -107.085938 28.3125 -106.347656 28.0625 -105.609375 C 22.519531 -83.453125 16.765625 -61.390625 10.796875 -39.421875 C 4.828125 -17.453125 -0.492188 4.609375 -5.171875 26.765625 C -5.660156 29.359375 -6.148438 31.882812 -6.640625 34.34375 C -7.140625 36.800781 -7.632812 39.265625 -8.125 41.734375 C -8.375 42.960938 -8.648438 44.160156 -8.953125 45.328125 C -9.265625 46.492188 -9.601562 47.632812 -9.96875 48.75 C -11.070312 48.875 -11.867188 48.65625 -12.359375 48.09375 C -12.859375 47.539062 -13.109375 46.957031 -13.109375 46.34375 C -13.234375 44.863281 -13.296875 43.445312 -13.296875 42.09375 C -13.296875 40.738281 -13.234375 39.320312 -13.109375 37.84375 C -12.117188 28 -10.703125 18.148438 -8.859375 8.296875 C -7.015625 -1.546875 -5.109375 -11.328125 -3.140625 -21.046875 C -0.429688 -34.460938 2.519531 -47.785156 5.71875 -61.015625 C 8.925781 -74.253906 12.25 -87.457031 15.6875 -100.625 C 15.9375 -101.738281 16.179688 -102.878906 16.421875 -104.046875 C 16.671875 -105.210938 16.921875 -106.472656 17.171875 -107.828125 C 16.304688 -107.953125 15.472656 -108.078125 14.671875 -108.203125 C 13.878906 -108.328125 13.113281 -108.328125 12.375 -108.203125 C 6.46875 -107.585938 0.59375 -106.910156 -5.25 -106.171875 C -11.101562 -105.429688 -16.921875 -104.691406 -22.703125 -103.953125 C -24.054688 -103.703125 -25.007812 -103.671875 -25.5625 -103.859375 C -26.125 -104.046875 -27.515625 -104.753906 -29.734375 -105.984375 C -28.742188 -107.585938 -27.414062 -108.570312 -25.75 -108.9375 C -24.09375 -109.300781 -22.460938 -109.671875 -20.859375 -110.046875 C -16.796875 -110.785156 -12.671875 -111.429688 -8.484375 -111.984375 C -4.304688 -112.535156 -0.125 -113.117188 4.0625 -113.734375 C 6.519531 -114.109375 9.039062 -114.445312 11.625 -114.75 C 14.21875 -115.0625 16.804688 -115.398438 19.390625 -115.765625 C 20.003906 -117.734375 20.617188 -119.734375 21.234375 -121.765625 C 21.847656 -123.796875 22.523438 -125.796875 23.265625 -127.765625 C 24.128906 -129.984375 24.988281 -132.226562 25.84375 -134.5 C 26.707031 -136.78125 27.691406 -138.90625 28.796875 -140.875 C 29.785156 -142.726562 31.078125 -143.960938 32.671875 -144.578125 C 34.273438 -145.191406 36.1875 -145.003906 38.40625 -144.015625 C 38.40625 -141.679688 37.941406 -139.5 37.015625 -137.46875 C 36.097656 -135.4375 35.332031 -133.375 34.71875 -131.28125 C 34.21875 -129.0625 33.691406 -126.84375 33.140625 -124.625 C 32.585938 -122.414062 31.941406 -120.078125 31.203125 -117.609375 C 32.429688 -117.492188 33.503906 -117.34375 34.421875 -117.15625 C 35.347656 -116.96875 36.242188 -116.9375 37.109375 -117.0625 C 44.003906 -117.3125 50.894531 -117.648438 57.78125 -118.078125 C 64.675781 -118.503906 71.570312 -118.84375 78.46875 -119.09375 C 81.550781 -119.21875 84.628906 -119.1875 87.703125 -119 C 90.785156 -118.8125 93.863281 -118.597656 96.9375 -118.359375 Z M 96.9375 -118.359375 "/></g></g></g><g fill="#000000" fill-opacity="1"><g transform="translate(238.079104, 203.06879)"><g><path d="M 53.734375 -193.6875 C 54.585938 -192.457031 54.921875 -191.285156 54.734375 -190.171875 C 54.554688 -189.066406 54.34375 -187.960938 54.09375 -186.859375 C 53.351562 -183.535156 52.582031 -180.269531 51.78125 -177.0625 C 50.988281 -173.863281 50.160156 -170.664062 49.296875 -167.46875 C 45.609375 -153.800781 41.546875 -140.257812 37.109375 -126.84375 C 32.679688 -113.425781 28.25 -100.070312 23.8125 -86.78125 C 21.101562 -78.289062 18.394531 -69.828125 15.6875 -61.390625 C 12.976562 -52.960938 10.269531 -44.5625 7.5625 -36.1875 C 7.320312 -35.445312 7.140625 -34.582031 7.015625 -33.59375 C 6.890625 -32.613281 6.644531 -31.328125 6.28125 -29.734375 C 7.757812 -31.203125 8.957031 -32.457031 9.875 -33.5 C 10.800781 -34.550781 11.695312 -35.507812 12.5625 -36.375 C 15.632812 -39.445312 18.675781 -42.519531 21.6875 -45.59375 C 24.707031 -48.675781 27.753906 -51.695312 30.828125 -54.65625 C 34.148438 -57.851562 38.09375 -59.207031 42.65625 -58.71875 C 44.988281 -58.46875 46.617188 -57.847656 47.546875 -56.859375 C 48.472656 -55.878906 48.9375 -54.222656 48.9375 -51.890625 C 48.9375 -48.929688 48.625 -46.160156 48 -43.578125 C 47.019531 -39.515625 46.035156 -35.515625 45.046875 -31.578125 C 44.066406 -27.640625 43.019531 -23.640625 41.90625 -19.578125 C 40.800781 -15.140625 39.847656 -10.644531 39.046875 -6.09375 C 38.242188 -1.539062 37.84375 3.070312 37.84375 7.75 C 37.84375 8.738281 37.84375 9.753906 37.84375 10.796875 C 37.84375 11.847656 37.90625 12.863281 38.03125 13.84375 C 38.28125 17.050781 38.804688 19.082031 39.609375 19.9375 C 40.410156 20.800781 42.472656 21.664062 45.796875 22.53125 C 44.929688 24 43.851562 24.859375 42.5625 25.109375 C 41.269531 25.359375 40.007812 25.546875 38.78125 25.671875 C 35.332031 25.785156 32.625 24.613281 30.65625 22.15625 C 30.039062 21.414062 29.453125 20.582031 28.890625 19.65625 C 28.335938 18.738281 27.941406 17.785156 27.703125 16.796875 C 26.835938 13.347656 26.28125 10.085938 26.03125 7.015625 C 25.414062 -4.429688 26.832031 -15.816406 30.28125 -27.140625 C 31.144531 -30.097656 32.003906 -33.113281 32.859375 -36.1875 C 33.722656 -39.269531 34.648438 -42.65625 35.640625 -46.34375 C 34.523438 -45.476562 33.628906 -44.832031 32.953125 -44.40625 C 32.273438 -43.976562 31.753906 -43.515625 31.390625 -43.015625 C 25.597656 -36.367188 19.8125 -29.597656 14.03125 -22.703125 C 11.8125 -20.117188 9.625 -17.472656 7.46875 -14.765625 C 5.320312 -12.054688 3.140625 -9.410156 0.921875 -6.828125 C -1.910156 -3.378906 -5.539062 -2.148438 -9.96875 -3.140625 C -12.675781 -3.753906 -13.722656 -5.414062 -13.109375 -8.125 C -12.859375 -9.351562 -12.546875 -10.582031 -12.171875 -11.8125 C -11.804688 -13.039062 -11.441406 -14.273438 -11.078125 -15.515625 C -4.429688 -35.085938 2.179688 -54.65625 8.765625 -74.21875 C 15.359375 -93.789062 21.976562 -113.363281 28.625 -132.9375 C 31.332031 -141.1875 34.039062 -149.429688 36.75 -157.671875 C 39.457031 -165.921875 42.164062 -174.234375 44.875 -182.609375 C 45.238281 -184.085938 45.664062 -185.535156 46.15625 -186.953125 C 46.65625 -188.367188 47.210938 -189.8125 47.828125 -191.28125 C 48.316406 -192.882812 49.113281 -193.804688 50.21875 -194.046875 C 51.332031 -194.296875 52.503906 -194.175781 53.734375 -193.6875 Z M 53.734375 -193.6875 "/></g></g></g><g fill="#618f9e" fill-opacity="1"><g transform="translate(291.994225, 203.06879)"><g><path d="M 20.125 -4.984375 C 19.144531 -2.023438 18.160156 1.082031 17.171875 4.34375 C 16.179688 7.601562 15.070312 11.328125 13.84375 15.515625 C 16.0625 14.523438 17.847656 13.691406 19.203125 13.015625 C 20.554688 12.335938 21.910156 11.691406 23.265625 11.078125 C 32.253906 6.765625 41.207031 2.425781 50.125 -1.9375 C 59.050781 -6.3125 68.070312 -10.585938 77.1875 -14.765625 C 81 -16.492188 84.90625 -18.035156 88.90625 -19.390625 C 92.90625 -20.742188 96.9375 -22.035156 101 -23.265625 C 103.957031 -24.242188 106.296875 -24.640625 108.015625 -24.453125 C 109.734375 -24.273438 112.132812 -23.691406 115.21875 -22.703125 C 114.726562 -22.210938 114.265625 -21.8125 113.828125 -21.5 C 113.398438 -21.195312 112.941406 -20.984375 112.453125 -20.859375 C 96.328125 -14.703125 80.753906 -7.535156 65.734375 0.640625 C 50.710938 8.828125 35.941406 17.476562 21.421875 26.59375 C 18.953125 28.1875 16.546875 29.875 14.203125 31.65625 C 11.867188 33.445312 9.289062 34.773438 6.46875 35.640625 C 4 36.253906 1.472656 36.5 -1.109375 36.375 C -1.972656 36.25 -2.800781 35.910156 -3.59375 35.359375 C -4.394531 34.804688 -5.226562 34.34375 -6.09375 33.96875 C -5.84375 32 -5.164062 30.460938 -4.0625 29.359375 C -2.957031 28.253906 -1.847656 27.207031 -0.734375 26.21875 C 0.242188 25.476562 0.976562 24.644531 1.46875 23.71875 C 1.96875 22.800781 2.28125 21.726562 2.40625 20.5 C 2.894531 14.707031 3.90625 9.039062 5.4375 3.5 C 6.976562 -2.03125 8.550781 -7.566406 10.15625 -13.109375 C 15.570312 -31.203125 21.695312 -49.019531 28.53125 -66.5625 C 35.363281 -84.101562 42.71875 -101.429688 50.59375 -118.546875 C 53.664062 -125.554688 56.832031 -132.476562 60.09375 -139.3125 C 63.363281 -146.144531 66.660156 -152.945312 69.984375 -159.71875 C 71.085938 -161.925781 72.285156 -164.046875 73.578125 -166.078125 C 74.867188 -168.109375 76.191406 -170.109375 77.546875 -172.078125 C 79.765625 -175.410156 82.660156 -176.210938 86.234375 -174.484375 C 86.847656 -172.640625 86.816406 -170.914062 86.140625 -169.3125 C 85.460938 -167.71875 84.816406 -166.179688 84.203125 -164.703125 C 80.140625 -154.972656 75.984375 -145.273438 71.734375 -135.609375 C 67.484375 -125.953125 63.328125 -116.257812 59.265625 -106.53125 C 52.128906 -89.914062 45.265625 -73.144531 38.671875 -56.21875 C 32.085938 -39.289062 25.90625 -22.210938 20.125 -4.984375 Z M 20.125 -4.984375 "/></g></g></g><g fill="#618f9e" fill-opacity="1"><g transform="translate(414.036095, 203.06879)"><g><path d="M 63.890625 -30.46875 C 63.890625 -30.46875 64.378906 -30.34375 65.359375 -30.09375 C 65.234375 -29.476562 65.171875 -28.800781 65.171875 -28.0625 C 65.171875 -27.320312 65.050781 -26.644531 64.8125 -26.03125 C 63.945312 -24.675781 63.050781 -23.289062 62.125 -21.875 C 61.207031 -20.457031 60.191406 -19.132812 59.078125 -17.90625 C 52.554688 -10.894531 45.050781 -5.359375 36.5625 -1.296875 C 32.863281 0.429688 29.078125 1.414062 25.203125 1.65625 C 21.328125 1.90625 17.421875 1.476562 13.484375 0.375 C 8.554688 -0.976562 4.828125 -3.5625 2.296875 -7.375 C -0.222656 -11.195312 -1.296875 -15.941406 -0.921875 -21.609375 C -0.554688 -28.003906 0.820312 -33.878906 3.21875 -39.234375 C 5.625 -44.585938 8.921875 -49.421875 13.109375 -53.734375 C 18.398438 -59.273438 24.429688 -60.441406 31.203125 -57.234375 C 33.910156 -56.003906 35.722656 -54.15625 36.640625 -51.6875 C 37.566406 -49.226562 37.414062 -46.523438 36.1875 -43.578125 C 35.570312 -41.847656 34.738281 -40.210938 33.6875 -38.671875 C 32.644531 -37.140625 31.570312 -35.695312 30.46875 -34.34375 C 25.414062 -28.5625 19.132812 -24.191406 11.625 -21.234375 C 11.132812 -18.890625 11.132812 -16.796875 11.625 -14.953125 C 12.125 -13.109375 12.800781 -11.382812 13.65625 -9.78125 C 14.769531 -7.9375 16.0625 -6.519531 17.53125 -5.53125 C 19.007812 -4.550781 20.796875 -4.1875 22.890625 -4.4375 C 24.617188 -4.675781 26.40625 -5.007812 28.25 -5.4375 C 30.09375 -5.875 31.816406 -6.460938 33.421875 -7.203125 C 38.460938 -9.421875 43.226562 -12.160156 47.71875 -15.421875 C 52.21875 -18.679688 56.316406 -22.523438 60.015625 -26.953125 C 60.628906 -27.566406 61.273438 -28.148438 61.953125 -28.703125 C 62.628906 -29.265625 63.273438 -29.851562 63.890625 -30.46875 Z M 24.5625 -50.78125 C 21.476562 -48.5625 19.070312 -45.878906 17.34375 -42.734375 C 15.625 -39.597656 14.335938 -35.507812 13.484375 -30.46875 C 16.066406 -32.3125 18.21875 -34.335938 19.9375 -36.546875 C 21.664062 -38.765625 23.207031 -41.226562 24.5625 -43.9375 C 25.050781 -44.925781 25.382812 -46.003906 25.5625 -47.171875 C 25.75 -48.347656 25.414062 -49.550781 24.5625 -50.78125 Z M 24.5625 -50.78125 "/></g></g></g><g fill="#618f9e" fill-opacity="1"><g transform="translate(470.348911, 203.06879)"><g><path d="M 108.9375 -187.046875 C 109.300781 -184.578125 109.113281 -182.359375 108.375 -180.390625 C 107.644531 -178.421875 106.972656 -176.453125 106.359375 -174.484375 C 100.941406 -158.359375 95.460938 -142.414062 89.921875 -126.65625 C 80.691406 -100.4375 71.734375 -74.1875 63.046875 -47.90625 C 54.367188 -21.632812 46.28125 4.859375 38.78125 31.578125 C 38.15625 33.785156 37.351562 35.816406 36.375 37.671875 C 36.125 38.160156 35.753906 38.523438 35.265625 38.765625 C 34.773438 39.015625 34.222656 39.328125 33.609375 39.703125 C 32.492188 38.222656 31.96875 36.773438 32.03125 35.359375 C 32.09375 33.941406 32.25 32.554688 32.5 31.203125 C 33.363281 26.890625 34.222656 22.519531 35.078125 18.09375 C 35.941406 13.664062 36.988281 9.234375 38.21875 4.796875 C 40.3125 -3.203125 42.492188 -11.171875 44.765625 -19.109375 C 47.046875 -27.046875 49.234375 -35.015625 51.328125 -43.015625 C 51.703125 -44.492188 52.164062 -45.972656 52.71875 -47.453125 C 53.269531 -48.929688 53.359375 -50.46875 52.984375 -52.0625 C 51.265625 -51.570312 50.066406 -50.710938 49.390625 -49.484375 C 48.710938 -48.253906 47.941406 -47.082031 47.078125 -45.96875 C 43.015625 -40.3125 38.550781 -35.082031 33.6875 -30.28125 C 28.832031 -25.476562 23.632812 -20.984375 18.09375 -16.796875 C 16.125 -15.328125 14.09375 -14.003906 12 -12.828125 C 9.90625 -11.660156 7.691406 -10.894531 5.359375 -10.53125 C 4.617188 -10.28125 3.910156 -10.09375 3.234375 -9.96875 C 2.554688 -9.84375 1.847656 -9.78125 1.109375 -9.78125 C -2.953125 -10.03125 -5.84375 -11.109375 -7.5625 -13.015625 C -9.289062 -14.921875 -9.660156 -18.03125 -8.671875 -22.34375 C -8.671875 -22.582031 -8.640625 -22.859375 -8.578125 -23.171875 C -8.523438 -23.484375 -8.4375 -23.757812 -8.3125 -24 C -5.226562 -30.769531 -1.503906 -37.015625 2.859375 -42.734375 C 7.234375 -48.460938 12.617188 -53.359375 19.015625 -57.421875 C 23.203125 -60.128906 27.507812 -60.804688 31.9375 -59.453125 C 34.40625 -58.710938 35.023438 -57.050781 33.796875 -54.46875 C 32.804688 -54.71875 31.785156 -54.992188 30.734375 -55.296875 C 29.691406 -55.609375 28.554688 -55.945312 27.328125 -56.3125 C 26.460938 -55.820312 25.566406 -55.300781 24.640625 -54.75 C 23.722656 -54.195312 22.894531 -53.550781 22.15625 -52.8125 C 17.84375 -48.75 14.054688 -44.378906 10.796875 -39.703125 C 7.535156 -35.023438 4.675781 -30.035156 2.21875 -24.734375 C 1.476562 -23.140625 0.953125 -21.539062 0.640625 -19.9375 C 0.335938 -18.34375 0.617188 -16.5625 1.484375 -14.59375 C 2.097656 -14.59375 2.742188 -14.617188 3.421875 -14.671875 C 4.097656 -14.734375 4.742188 -14.890625 5.359375 -15.140625 C 8.066406 -16.617188 10.648438 -18.28125 13.109375 -20.125 C 21.109375 -25.789062 28.1875 -32.222656 34.34375 -39.421875 C 40.5 -46.617188 45.976562 -54.40625 50.78125 -62.78125 C 55.207031 -70.289062 59.203125 -78.015625 62.765625 -85.953125 C 66.335938 -93.890625 69.476562 -102.046875 72.1875 -110.421875 C 75.632812 -121.242188 79.203125 -132.039062 82.890625 -142.8125 C 86.585938 -153.582031 90.285156 -164.328125 93.984375 -175.046875 C 94.347656 -176.273438 94.742188 -177.503906 95.171875 -178.734375 C 95.609375 -179.960938 96.007812 -181.128906 96.375 -182.234375 C 97.726562 -185.441406 99.113281 -187.320312 100.53125 -187.875 C 101.945312 -188.425781 104.75 -188.148438 108.9375 -187.046875 Z M 108.9375 -187.046875 "/></g></g></g><g clip-path="url(#d09ed0e115)"><g fill="#618f9e" fill-opacity="1"><g transform="translate(539.585974, 203.06879)"><g><path d="M 88.4375 -17.546875 C 89.789062 -18.285156 91.144531 -18.929688 92.5 -19.484375 C 93.851562 -20.035156 95.394531 -20.4375 97.125 -20.6875 C 96.382812 -20.1875 95.675781 -19.628906 95 -19.015625 C 94.320312 -18.398438 93.613281 -17.847656 92.875 -17.359375 C 88.195312 -14.273438 83.550781 -11.132812 78.9375 -7.9375 C 74.320312 -4.738281 69.613281 -1.597656 64.8125 1.484375 C 61.976562 3.328125 59.546875 5.382812 57.515625 7.65625 C 55.484375 9.9375 53.851562 12.675781 52.625 15.875 C 51.269531 19.570312 49.695312 23.171875 47.90625 26.671875 C 46.125 30.179688 44.25 33.660156 42.28125 37.109375 C 33.914062 52.378906 23.820312 65.828125 12 77.453125 C 0.1875 89.085938 -13.535156 98.722656 -29.171875 106.359375 C -32.492188 107.953125 -35.878906 109.394531 -39.328125 110.6875 C -42.773438 111.976562 -46.285156 112.929688 -49.859375 113.546875 C -52.191406 113.921875 -54.46875 114.078125 -56.6875 114.015625 C -58.90625 113.953125 -61.054688 113.488281 -63.140625 112.625 C -67.328125 111.03125 -69.175781 108.265625 -68.6875 104.328125 C -68.4375 102.722656 -68.097656 101.148438 -67.671875 99.609375 C -67.242188 98.078125 -66.660156 96.691406 -65.921875 95.453125 C -64.316406 92.992188 -62.617188 90.59375 -60.828125 88.25 C -59.046875 85.914062 -57.109375 83.703125 -55.015625 81.609375 C -49.847656 76.066406 -44.3125 70.925781 -38.40625 66.1875 C -32.5 61.445312 -26.34375 56.925781 -19.9375 52.625 C -9.84375 45.976562 0.21875 39.328125 10.25 32.671875 C 20.28125 26.023438 30.40625 19.441406 40.625 12.921875 C 45.539062 9.722656 48.925781 5.414062 50.78125 0 C 53.113281 -7.132812 55.265625 -14.363281 57.234375 -21.6875 C 59.203125 -29.019531 60.4375 -36.5 60.9375 -44.125 C 60.9375 -45.601562 60.992188 -47.109375 61.109375 -48.640625 C 61.234375 -50.179688 60.617188 -51.628906 59.265625 -52.984375 C 57.785156 -52.003906 56.550781 -50.835938 55.5625 -49.484375 C 54.582031 -48.128906 53.601562 -46.773438 52.625 -45.421875 C 49.789062 -41.722656 46.988281 -38.023438 44.21875 -34.328125 C 41.445312 -30.640625 38.585938 -27.015625 35.640625 -23.453125 C 33.671875 -21.109375 31.640625 -18.921875 29.546875 -16.890625 C 27.453125 -14.859375 25.296875 -12.859375 23.078125 -10.890625 C 21.109375 -9.046875 18.953125 -7.476562 16.609375 -6.1875 C 14.273438 -4.894531 11.753906 -3.941406 9.046875 -3.328125 C 7.441406 -2.953125 5.804688 -2.671875 4.140625 -2.484375 C 2.484375 -2.304688 0.796875 -2.335938 -0.921875 -2.578125 C -4.984375 -3.078125 -7.628906 -4.617188 -8.859375 -7.203125 C -10.085938 -9.785156 -9.597656 -12.863281 -7.390625 -16.4375 C -6.160156 -18.53125 -4.742188 -20.253906 -3.140625 -21.609375 C -1.171875 -23.453125 0.796875 -25.265625 2.765625 -27.046875 C 4.734375 -28.835938 6.765625 -30.53125 8.859375 -32.125 C 12.429688 -34.832031 15.628906 -36.894531 18.453125 -38.3125 C 21.285156 -39.726562 24.269531 -40.773438 27.40625 -41.453125 C 30.550781 -42.128906 34.398438 -42.59375 38.953125 -42.84375 C 40.066406 -44.3125 41.269531 -45.875 42.5625 -47.53125 C 43.851562 -49.195312 45.113281 -50.832031 46.34375 -52.4375 C 47.445312 -53.539062 48.488281 -54.675781 49.46875 -55.84375 C 50.457031 -57.019531 51.507812 -58.160156 52.625 -59.265625 C 54.957031 -61.484375 57.785156 -62.65625 61.109375 -62.78125 C 67.023438 -63.019531 70.289062 -60.3125 70.90625 -54.65625 C 71.03125 -52.6875 71.0625 -50.71875 71 -48.75 C 70.9375 -46.78125 70.78125 -44.8125 70.53125 -42.84375 C 69.914062 -36.925781 68.867188 -31.101562 67.390625 -25.375 C 65.910156 -19.65625 64.25 -14.03125 62.40625 -8.5 C 62.039062 -7.382812 61.703125 -6.273438 61.390625 -5.171875 C 61.085938 -4.066406 60.6875 -2.710938 60.1875 -1.109375 C 61.300781 -1.597656 62.195312 -1.9375 62.875 -2.125 C 63.550781 -2.3125 64.195312 -2.585938 64.8125 -2.953125 C 68.75 -5.296875 72.6875 -7.695312 76.625 -10.15625 C 80.5625 -12.613281 84.5 -15.078125 88.4375 -17.546875 Z M 34.34375 -36.75 C 34.59375 -36.988281 34.65625 -37.320312 34.53125 -37.75 C 34.40625 -38.1875 34.28125 -38.710938 34.15625 -39.328125 C 28.613281 -36.742188 23.65625 -33.632812 19.28125 -30 C 14.914062 -26.375 10.890625 -22.34375 7.203125 -17.90625 C 6.210938 -16.675781 5.347656 -15.351562 4.609375 -13.9375 C 3.878906 -12.519531 3.757812 -10.582031 4.25 -8.125 C 5.96875 -9.101562 7.441406 -9.929688 8.671875 -10.609375 C 9.910156 -11.285156 11.082031 -12.054688 12.1875 -12.921875 C 16.613281 -16.117188 20.644531 -19.78125 24.28125 -23.90625 C 27.914062 -28.03125 31.269531 -32.3125 34.34375 -36.75 Z M 41.359375 22.15625 C 41.609375 21.664062 41.789062 21.113281 41.90625 20.5 C 42.03125 19.882812 42.21875 19.019531 42.46875 17.90625 C 41.238281 18.519531 40.222656 19.007812 39.421875 19.375 C 38.617188 19.75 37.910156 20.1875 37.296875 20.6875 C 28.554688 26.71875 19.785156 32.773438 10.984375 38.859375 C 2.179688 44.953125 -6.523438 51.203125 -15.140625 57.609375 C -20.066406 61.296875 -24.804688 65.203125 -29.359375 69.328125 C -33.910156 73.453125 -38.523438 77.609375 -43.203125 81.796875 C -45.046875 83.515625 -46.769531 85.359375 -48.375 87.328125 C -49.976562 89.304688 -51.515625 91.28125 -52.984375 93.25 C -54.835938 95.832031 -56.378906 98.847656 -57.609375 102.296875 C -58.472656 104.878906 -58.378906 106.753906 -57.328125 107.921875 C -56.285156 109.085938 -54.410156 109.488281 -51.703125 109.125 C -51.085938 109 -50.441406 108.84375 -49.765625 108.65625 C -49.085938 108.476562 -48.378906 108.265625 -47.640625 108.015625 C -44.066406 106.410156 -40.429688 104.867188 -36.734375 103.390625 C -33.046875 101.921875 -29.539062 100.257812 -26.21875 98.40625 C -10.457031 89.664062 2.894531 78.800781 13.84375 65.8125 C 24.800781 52.832031 33.972656 38.28125 41.359375 22.15625 Z M 41.359375 22.15625 "/></g></g></g></g><g fill="#618f9e" fill-opacity="1"><g transform="translate(627.4709, 203.06879)"><g><path d="M 63.890625 -30.46875 C 63.890625 -30.46875 64.378906 -30.34375 65.359375 -30.09375 C 65.234375 -29.476562 65.171875 -28.800781 65.171875 -28.0625 C 65.171875 -27.320312 65.050781 -26.644531 64.8125 -26.03125 C 63.945312 -24.675781 63.050781 -23.289062 62.125 -21.875 C 61.207031 -20.457031 60.191406 -19.132812 59.078125 -17.90625 C 52.554688 -10.894531 45.050781 -5.359375 36.5625 -1.296875 C 32.863281 0.429688 29.078125 1.414062 25.203125 1.65625 C 21.328125 1.90625 17.421875 1.476562 13.484375 0.375 C 8.554688 -0.976562 4.828125 -3.5625 2.296875 -7.375 C -0.222656 -11.195312 -1.296875 -15.941406 -0.921875 -21.609375 C -0.554688 -28.003906 0.820312 -33.878906 3.21875 -39.234375 C 5.625 -44.585938 8.921875 -49.421875 13.109375 -53.734375 C 18.398438 -59.273438 24.429688 -60.441406 31.203125 -57.234375 C 33.910156 -56.003906 35.722656 -54.15625 36.640625 -51.6875 C 37.566406 -49.226562 37.414062 -46.523438 36.1875 -43.578125 C 35.570312 -41.847656 34.738281 -40.210938 33.6875 -38.671875 C 32.644531 -37.140625 31.570312 -35.695312 30.46875 -34.34375 C 25.414062 -28.5625 19.132812 -24.191406 11.625 -21.234375 C 11.132812 -18.890625 11.132812 -16.796875 11.625 -14.953125 C 12.125 -13.109375 12.800781 -11.382812 13.65625 -9.78125 C 14.769531 -7.9375 16.0625 -6.519531 17.53125 -5.53125 C 19.007812 -4.550781 20.796875 -4.1875 22.890625 -4.4375 C 24.617188 -4.675781 26.40625 -5.007812 28.25 -5.4375 C 30.09375 -5.875 31.816406 -6.460938 33.421875 -7.203125 C 38.460938 -9.421875 43.226562 -12.160156 47.71875 -15.421875 C 52.21875 -18.679688 56.316406 -22.523438 60.015625 -26.953125 C 60.628906 -27.566406 61.273438 -28.148438 61.953125 -28.703125 C 62.628906 -29.265625 63.273438 -29.851562 63.890625 -30.46875 Z M 24.5625 -50.78125 C 21.476562 -48.5625 19.070312 -45.878906 17.34375 -42.734375 C 15.625 -39.597656 14.335938 -35.507812 13.484375 -30.46875 C 16.066406 -32.3125 18.21875 -34.335938 19.9375 -36.546875 C 21.664062 -38.765625 23.207031 -41.226562 24.5625 -43.9375 C 25.050781 -44.925781 25.382812 -46.003906 25.5625 -47.171875 C 25.75 -48.347656 25.414062 -49.550781 24.5625 -50.78125 Z M 24.5625 -50.78125 "/></g></g></g><g fill="#618f9e" fill-opacity="1"><g transform="translate(683.783716, 203.06879)"><g><path d="M 54.09375 -52.25 C 55.332031 -47.082031 55.210938 -42.097656 53.734375 -37.296875 C 53.609375 -36.929688 53.296875 -36.46875 52.796875 -35.90625 C 52.304688 -35.351562 51.941406 -35.140625 51.703125 -35.265625 C 50.222656 -35.515625 49.113281 -36.191406 48.375 -37.296875 C 48.007812 -37.910156 47.734375 -38.648438 47.546875 -39.515625 C 47.359375 -40.378906 47.144531 -41.238281 46.90625 -42.09375 C 46.53125 -43.082031 46.15625 -44.128906 45.78125 -45.234375 C 45.414062 -46.347656 44.988281 -47.582031 44.5 -48.9375 C 43.632812 -48.070312 42.800781 -47.332031 42 -46.71875 C 41.207031 -46.101562 40.5 -45.425781 39.875 -44.6875 C 37.289062 -41.363281 34.707031 -38.039062 32.125 -34.71875 C 29.539062 -31.394531 26.957031 -28.007812 24.375 -24.5625 C 22.40625 -21.976562 20.460938 -19.300781 18.546875 -16.53125 C 16.640625 -13.757812 14.644531 -11.019531 12.5625 -8.3125 C 11.570312 -6.957031 10.488281 -5.691406 9.3125 -4.515625 C 8.144531 -3.347656 6.945312 -2.148438 5.71875 -0.921875 C 3.75 1.046875 1.164062 1.96875 -2.03125 1.84375 C -6.21875 1.84375 -7.878906 -0.125 -7.015625 -4.0625 C -6.523438 -6.394531 -5.722656 -8.796875 -4.609375 -11.265625 C -1.785156 -18.035156 1.039062 -24.773438 3.875 -31.484375 C 6.707031 -38.191406 9.601562 -44.867188 12.5625 -51.515625 C 12.925781 -52.492188 13.320312 -53.414062 13.75 -54.28125 C 14.1875 -55.144531 14.648438 -55.945312 15.140625 -56.6875 C 16.617188 -59.269531 19.082031 -59.882812 22.53125 -58.53125 C 22.28125 -54.101562 21.289062 -49.828125 19.5625 -45.703125 C 17.84375 -41.578125 16.863281 -36.988281 16.625 -31.9375 C 17.726562 -33.175781 18.648438 -34.222656 19.390625 -35.078125 C 20.128906 -35.941406 20.804688 -36.679688 21.421875 -37.296875 C 23.753906 -40.128906 26.085938 -42.957031 28.421875 -45.78125 C 30.765625 -48.613281 33.109375 -51.382812 35.453125 -54.09375 C 37.910156 -57.050781 41.050781 -58.65625 44.875 -58.90625 C 49.914062 -59.394531 52.988281 -57.175781 54.09375 -52.25 Z M 54.09375 -52.25 "/></g></g></g></g></g><g transform="matrix(1, 0, 0, 1, 104, 844)"><g clip-path="url(#0440c79f67)"><g fill="#000000" fill-opacity="1"><g transform="translate(1.087691, 84.391261)"><g><path d="M 23.03125 -57.84375 C 30.488281 -57.84375 35.9375 -56.382812 39.375 -53.46875 C 42.820312 -50.550781 44.546875 -46.378906 44.546875 -40.953125 C 44.546875 -38.492188 44.144531 -36.160156 43.34375 -33.953125 C 42.539062 -31.753906 41.238281 -29.816406 39.4375 -28.140625 C 37.644531 -26.472656 35.289062 -25.15625 32.375 -24.1875 C 29.46875 -23.226562 25.90625 -22.75 21.6875 -22.75 L 14.640625 -22.75 L 14.640625 0 L 7.90625 0 L 7.90625 -57.84375 Z M 22.390625 -52.109375 L 14.640625 -52.109375 L 14.640625 -28.53125 L 20.9375 -28.53125 C 24.625 -28.53125 27.703125 -28.925781 30.171875 -29.71875 C 32.640625 -30.507812 34.492188 -31.796875 35.734375 -33.578125 C 36.972656 -35.359375 37.59375 -37.722656 37.59375 -40.671875 C 37.59375 -44.523438 36.363281 -47.394531 33.90625 -49.28125 C 31.457031 -51.164062 27.617188 -52.109375 22.390625 -52.109375 Z M 22.390625 -52.109375 "/></g></g></g><g fill="#000000" fill-opacity="1"><g transform="translate(66.038607, 84.391261)"><g><path d="M 51.75 0 L 45.03125 0 L 45.03125 -27.265625 L 14.640625 -27.265625 L 14.640625 0 L 7.90625 0 L 7.90625 -57.84375 L 14.640625 -57.84375 L 14.640625 -33.203125 L 45.03125 -33.203125 L 45.03125 -57.84375 L 51.75 -57.84375 Z M 51.75 0 "/></g></g></g><g fill="#000000" fill-opacity="1"><g transform="translate(141.987932, 84.391261)"><g><path d="M 58.078125 -29 C 58.078125 -24.539062 57.507812 -20.484375 56.375 -16.828125 C 55.25 -13.179688 53.570312 -10.046875 51.34375 -7.421875 C 49.113281 -4.796875 46.347656 -2.769531 43.046875 -1.34375 C 39.753906 0.0820312 35.929688 0.796875 31.578125 0.796875 C 27.085938 0.796875 23.175781 0.0820312 19.84375 -1.34375 C 16.507812 -2.769531 13.738281 -4.800781 11.53125 -7.4375 C 9.332031 -10.070312 7.6875 -13.222656 6.59375 -16.890625 C 5.5 -20.554688 4.953125 -24.617188 4.953125 -29.078125 C 4.953125 -34.984375 5.925781 -40.164062 7.875 -44.625 C 9.820312 -49.082031 12.78125 -52.550781 16.75 -55.03125 C 20.71875 -57.507812 25.695312 -58.75 31.6875 -58.75 C 37.414062 -58.75 42.238281 -57.519531 46.15625 -55.0625 C 50.070312 -52.613281 53.035156 -49.164062 55.046875 -44.71875 C 57.066406 -40.28125 58.078125 -35.039062 58.078125 -29 Z M 12.03125 -29 C 12.03125 -24.09375 12.726562 -19.84375 14.125 -16.25 C 15.519531 -12.664062 17.660156 -9.898438 20.546875 -7.953125 C 23.441406 -6.003906 27.117188 -5.03125 31.578125 -5.03125 C 36.054688 -5.03125 39.726562 -6.003906 42.59375 -7.953125 C 45.457031 -9.898438 47.570312 -12.664062 48.9375 -16.25 C 50.3125 -19.84375 51 -24.09375 51 -29 C 51 -36.46875 49.4375 -42.304688 46.3125 -46.515625 C 43.1875 -50.722656 38.3125 -52.828125 31.6875 -52.828125 C 27.207031 -52.828125 23.515625 -51.863281 20.609375 -49.9375 C 17.710938 -48.007812 15.554688 -45.269531 14.140625 -41.71875 C 12.734375 -38.175781 12.03125 -33.9375 12.03125 -29 Z M 12.03125 -29 "/></g></g></g><g fill="#000000" fill-opacity="1"><g transform="translate(221.220991, 84.391261)"><g><path d="M 25.671875 0 L 18.90625 0 L 18.90625 -51.90625 L 0.71875 -51.90625 L 0.71875 -57.84375 L 43.796875 -57.84375 L 43.796875 -51.90625 L 25.671875 -51.90625 Z M 25.671875 0 "/></g></g></g><g fill="#000000" fill-opacity="1"><g transform="translate(282.057394, 84.391261)"><g><path d="M 58.078125 -29 C 58.078125 -24.539062 57.507812 -20.484375 56.375 -16.828125 C 55.25 -13.179688 53.570312 -10.046875 51.34375 -7.421875 C 49.113281 -4.796875 46.347656 -2.769531 43.046875 -1.34375 C 39.753906 0.0820312 35.929688 0.796875 31.578125 0.796875 C 27.085938 0.796875 23.175781 0.0820312 19.84375 -1.34375 C 16.507812 -2.769531 13.738281 -4.800781 11.53125 -7.4375 C 9.332031 -10.070312 7.6875 -13.222656 6.59375 -16.890625 C 5.5 -20.554688 4.953125 -24.617188 4.953125 -29.078125 C 4.953125 -34.984375 5.925781 -40.164062 7.875 -44.625 C 9.820312 -49.082031 12.78125 -52.550781 16.75 -55.03125 C 20.71875 -57.507812 25.695312 -58.75 31.6875 -58.75 C 37.414062 -58.75 42.238281 -57.519531 46.15625 -55.0625 C 50.070312 -52.613281 53.035156 -49.164062 55.046875 -44.71875 C 57.066406 -40.28125 58.078125 -35.039062 58.078125 -29 Z M 12.03125 -29 C 12.03125 -24.09375 12.726562 -19.84375 14.125 -16.25 C 15.519531 -12.664062 17.660156 -9.898438 20.546875 -7.953125 C 23.441406 -6.003906 27.117188 -5.03125 31.578125 -5.03125 C 36.054688 -5.03125 39.726562 -6.003906 42.59375 -7.953125 C 45.457031 -9.898438 47.570312 -12.664062 48.9375 -16.25 C 50.3125 -19.84375 51 -24.09375 51 -29 C 51 -36.46875 49.4375 -42.304688 46.3125 -46.515625 C 43.1875 -50.722656 38.3125 -52.828125 31.6875 -52.828125 C 27.207031 -52.828125 23.515625 -51.863281 20.609375 -49.9375 C 17.710938 -48.007812 15.554688 -45.269531 14.140625 -41.71875 C 12.734375 -38.175781 12.03125 -33.9375 12.03125 -29 Z M 12.03125 -29 "/></g></g></g><g fill="#000000" fill-opacity="1"><g transform="translate(361.290452, 84.391261)"><g><path d="M 7.90625 -57.84375 L 24.296875 -57.84375 C 31.523438 -57.84375 36.957031 -56.757812 40.59375 -54.59375 C 44.238281 -52.4375 46.0625 -48.757812 46.0625 -43.5625 C 46.0625 -41.320312 45.628906 -39.3125 44.765625 -37.53125 C 43.910156 -35.75 42.664062 -34.273438 41.03125 -33.109375 C 39.394531 -31.953125 37.375 -31.148438 34.96875 -30.703125 L 34.96875 -30.3125 C 37.507812 -29.914062 39.753906 -29.1875 41.703125 -28.125 C 43.648438 -27.070312 45.175781 -25.59375 46.28125 -23.6875 C 47.394531 -21.789062 47.953125 -19.378906 47.953125 -16.453125 C 47.953125 -12.898438 47.128906 -9.894531 45.484375 -7.4375 C 43.835938 -4.988281 41.507812 -3.132812 38.5 -1.875 C 35.488281 -0.625 31.925781 0 27.8125 0 L 7.90625 0 Z M 14.640625 -33.03125 L 25.71875 -33.03125 C 30.757812 -33.03125 34.25 -33.859375 36.1875 -35.515625 C 38.125 -37.179688 39.09375 -39.613281 39.09375 -42.8125 C 39.09375 -46.101562 37.9375 -48.472656 35.625 -49.921875 C 33.320312 -51.378906 29.648438 -52.109375 24.609375 -52.109375 L 14.640625 -52.109375 Z M 14.640625 -27.375 L 14.640625 -5.734375 L 26.671875 -5.734375 C 31.816406 -5.734375 35.457031 -6.742188 37.59375 -8.765625 C 39.726562 -10.785156 40.796875 -13.507812 40.796875 -16.9375 C 40.796875 -19.125 40.3125 -20.992188 39.34375 -22.546875 C 38.382812 -24.109375 36.828125 -25.300781 34.671875 -26.125 C 32.523438 -26.957031 29.660156 -27.375 26.078125 -27.375 Z M 14.640625 -27.375 "/></g></g></g><g fill="#000000" fill-opacity="1"><g transform="translate(429.841603, 84.391261)"><g><path d="M 58.078125 -29 C 58.078125 -24.539062 57.507812 -20.484375 56.375 -16.828125 C 55.25 -13.179688 53.570312 -10.046875 51.34375 -7.421875 C 49.113281 -4.796875 46.347656 -2.769531 43.046875 -1.34375 C 39.753906 0.0820312 35.929688 0.796875 31.578125 0.796875 C 27.085938 0.796875 23.175781 0.0820312 19.84375 -1.34375 C 16.507812 -2.769531 13.738281 -4.800781 11.53125 -7.4375 C 9.332031 -10.070312 7.6875 -13.222656 6.59375 -16.890625 C 5.5 -20.554688 4.953125 -24.617188 4.953125 -29.078125 C 4.953125 -34.984375 5.925781 -40.164062 7.875 -44.625 C 9.820312 -49.082031 12.78125 -52.550781 16.75 -55.03125 C 20.71875 -57.507812 25.695312 -58.75 31.6875 -58.75 C 37.414062 -58.75 42.238281 -57.519531 46.15625 -55.0625 C 50.070312 -52.613281 53.035156 -49.164062 55.046875 -44.71875 C 57.066406 -40.28125 58.078125 -35.039062 58.078125 -29 Z M 12.03125 -29 C 12.03125 -24.09375 12.726562 -19.84375 14.125 -16.25 C 15.519531 -12.664062 17.660156 -9.898438 20.546875 -7.953125 C 23.441406 -6.003906 27.117188 -5.03125 31.578125 -5.03125 C 36.054688 -5.03125 39.726562 -6.003906 42.59375 -7.953125 C 45.457031 -9.898438 47.570312 -12.664062 48.9375 -16.25 C 50.3125 -19.84375 51 -24.09375 51 -29 C 51 -36.46875 49.4375 -42.304688 46.3125 -46.515625 C 43.1875 -50.722656 38.3125 -52.828125 31.6875 -52.828125 C 27.207031 -52.828125 23.515625 -51.863281 20.609375 -49.9375 C 17.710938 -48.007812 15.554688 -45.269531 14.140625 -41.71875 C 12.734375 -38.175781 12.03125 -33.9375 12.03125 -29 Z M 12.03125 -29 "/></g></g></g><g fill="#000000" fill-opacity="1"><g transform="translate(509.074661, 84.391261)"><g><path d="M 58.078125 -29 C 58.078125 -24.539062 57.507812 -20.484375 56.375 -16.828125 C 55.25 -13.179688 53.570312 -10.046875 51.34375 -7.421875 C 49.113281 -4.796875 46.347656 -2.769531 43.046875 -1.34375 C 39.753906 0.0820312 35.929688 0.796875 31.578125 0.796875 C 27.085938 0.796875 23.175781 0.0820312 19.84375 -1.34375 C 16.507812 -2.769531 13.738281 -4.800781 11.53125 -7.4375 C 9.332031 -10.070312 7.6875 -13.222656 6.59375 -16.890625 C 5.5 -20.554688 4.953125 -24.617188 4.953125 -29.078125 C 4.953125 -34.984375 5.925781 -40.164062 7.875 -44.625 C 9.820312 -49.082031 12.78125 -52.550781 16.75 -55.03125 C 20.71875 -57.507812 25.695312 -58.75 31.6875 -58.75 C 37.414062 -58.75 42.238281 -57.519531 46.15625 -55.0625 C 50.070312 -52.613281 53.035156 -49.164062 55.046875 -44.71875 C 57.066406 -40.28125 58.078125 -35.039062 58.078125 -29 Z M 12.03125 -29 C 12.03125 -24.09375 12.726562 -19.84375 14.125 -16.25 C 15.519531 -12.664062 17.660156 -9.898438 20.546875 -7.953125 C 23.441406 -6.003906 27.117188 -5.03125 31.578125 -5.03125 C 36.054688 -5.03125 39.726562 -6.003906 42.59375 -7.953125 C 45.457031 -9.898438 47.570312 -12.664062 48.9375 -16.25 C 50.3125 -19.84375 51 -24.09375 51 -29 C 51 -36.46875 49.4375 -42.304688 46.3125 -46.515625 C 43.1875 -50.722656 38.3125 -52.828125 31.6875 -52.828125 C 27.207031 -52.828125 23.515625 -51.863281 20.609375 -49.9375 C 17.710938 -48.007812 15.554688 -45.269531 14.140625 -41.71875 C 12.734375 -38.175781 12.03125 -33.9375 12.03125 -29 Z M 12.03125 -29 "/></g></g></g><g fill="#000000" fill-opacity="1"><g transform="translate(588.30772, 84.391261)"><g><path d="M 25.671875 0 L 18.90625 0 L 18.90625 -51.90625 L 0.71875 -51.90625 L 0.71875 -57.84375 L 43.796875 -57.84375 L 43.796875 -51.90625 L 25.671875 -51.90625 Z M 25.671875 0 "/></g></g></g><g fill="#000000" fill-opacity="1"><g transform="translate(649.144123, 84.391261)"><g><path d="M 51.75 0 L 45.03125 0 L 45.03125 -27.265625 L 14.640625 -27.265625 L 14.640625 0 L 7.90625 0 L 7.90625 -57.84375 L 14.640625 -57.84375 L 14.640625 -33.203125 L 45.03125 -33.203125 L 45.03125 -57.84375 L 51.75 -57.84375 Z M 51.75 0 "/></g></g></g><g fill="#000000" fill-opacity="1"><g transform="translate(725.093449, 84.391261)"><g/></g></g><g fill="#000000" fill-opacity="1"><g transform="translate(762.350526, 84.391261)"><g><path d="M 40.5625 -15.390625 C 40.5625 -11.960938 39.707031 -9.039062 38 -6.625 C 36.300781 -4.207031 33.921875 -2.363281 30.859375 -1.09375 C 27.796875 0.164062 24.195312 0.796875 20.0625 0.796875 C 17.875 0.796875 15.800781 0.6875 13.84375 0.46875 C 11.894531 0.257812 10.101562 -0.0390625 8.46875 -0.4375 C 6.832031 -0.832031 5.394531 -1.320312 4.15625 -1.90625 L 4.15625 -8.34375 C 6.132812 -7.53125 8.546875 -6.773438 11.390625 -6.078125 C 14.242188 -5.378906 17.226562 -5.03125 20.34375 -5.03125 C 23.238281 -5.03125 25.6875 -5.414062 27.6875 -6.1875 C 29.695312 -6.96875 31.222656 -8.085938 32.265625 -9.546875 C 33.304688 -11.015625 33.828125 -12.78125 33.828125 -14.84375 C 33.828125 -16.820312 33.390625 -18.472656 32.515625 -19.796875 C 31.648438 -21.128906 30.207031 -22.34375 28.1875 -23.4375 C 26.164062 -24.53125 23.414062 -25.695312 19.9375 -26.9375 C 17.488281 -27.8125 15.328125 -28.769531 13.453125 -29.8125 C 11.578125 -30.851562 10.003906 -32.03125 8.734375 -33.34375 C 7.472656 -34.664062 6.519531 -36.195312 5.875 -37.9375 C 5.226562 -39.6875 4.90625 -41.679688 4.90625 -43.921875 C 4.90625 -47.003906 5.6875 -49.644531 7.25 -51.84375 C 8.820312 -54.050781 11 -55.738281 13.78125 -56.90625 C 16.570312 -58.082031 19.773438 -58.671875 23.390625 -58.671875 C 26.472656 -58.671875 29.328125 -58.378906 31.953125 -57.796875 C 34.578125 -57.222656 36.984375 -56.445312 39.171875 -55.46875 L 37.078125 -49.6875 C 34.992188 -50.5625 32.78125 -51.285156 30.4375 -51.859375 C 28.101562 -52.441406 25.695312 -52.734375 23.21875 -52.734375 C 20.738281 -52.734375 18.648438 -52.367188 16.953125 -51.640625 C 15.253906 -50.921875 13.957031 -49.898438 13.0625 -48.578125 C 12.164062 -47.265625 11.71875 -45.695312 11.71875 -43.875 C 11.71875 -41.84375 12.144531 -40.15625 13 -38.8125 C 13.851562 -37.46875 15.222656 -36.273438 17.109375 -35.234375 C 18.992188 -34.191406 21.492188 -33.101562 24.609375 -31.96875 C 28.015625 -30.726562 30.90625 -29.414062 33.28125 -28.03125 C 35.65625 -26.644531 37.460938 -24.957031 38.703125 -22.96875 C 39.941406 -20.976562 40.5625 -18.453125 40.5625 -15.390625 Z M 40.5625 -15.390625 "/></g></g></g><g fill="#000000" fill-opacity="1"><g transform="translate(822.989151, 84.391261)"><g><path d="M 58.078125 -29 C 58.078125 -24.539062 57.507812 -20.484375 56.375 -16.828125 C 55.25 -13.179688 53.570312 -10.046875 51.34375 -7.421875 C 49.113281 -4.796875 46.347656 -2.769531 43.046875 -1.34375 C 39.753906 0.0820312 35.929688 0.796875 31.578125 0.796875 C 27.085938 0.796875 23.175781 0.0820312 19.84375 -1.34375 C 16.507812 -2.769531 13.738281 -4.800781 11.53125 -7.4375 C 9.332031 -10.070312 7.6875 -13.222656 6.59375 -16.890625 C 5.5 -20.554688 4.953125 -24.617188 4.953125 -29.078125 C 4.953125 -34.984375 5.925781 -40.164062 7.875 -44.625 C 9.820312 -49.082031 12.78125 -52.550781 16.75 -55.03125 C 20.71875 -57.507812 25.695312 -58.75 31.6875 -58.75 C 37.414062 -58.75 42.238281 -57.519531 46.15625 -55.0625 C 50.070312 -52.613281 53.035156 -49.164062 55.046875 -44.71875 C 57.066406 -40.28125 58.078125 -35.039062 58.078125 -29 Z M 12.03125 -29 C 12.03125 -24.09375 12.726562 -19.84375 14.125 -16.25 C 15.519531 -12.664062 17.660156 -9.898438 20.546875 -7.953125 C 23.441406 -6.003906 27.117188 -5.03125 31.578125 -5.03125 C 36.054688 -5.03125 39.726562 -6.003906 42.59375 -7.953125 C 45.457031 -9.898438 47.570312 -12.664062 48.9375 -16.25 C 50.3125 -19.84375 51 -24.09375 51 -29 C 51 -36.46875 49.4375 -42.304688 46.3125 -46.515625 C 43.1875 -50.722656 38.3125 -52.828125 31.6875 -52.828125 C 27.207031 -52.828125 23.515625 -51.863281 20.609375 -49.9375 C 17.710938 -48.007812 15.554688 -45.269531 14.140625 -41.71875 C 12.734375 -38.175781 12.03125 -33.9375 12.03125 -29 Z M 12.03125 -29 "/></g></g></g><g fill="#000000" fill-opacity="1"><g transform="translate(902.22221, 84.391261)"><g><path d="M 14.640625 0 L 7.90625 0 L 7.90625 -57.84375 L 40.125 -57.84375 L 40.125 -51.90625 L 14.640625 -51.90625 L 14.640625 -30.703125 L 38.578125 -30.703125 L 38.578125 -24.8125 L 14.640625 -24.8125 Z M 14.640625 0 "/></g></g></g><g fill="#000000" fill-opacity="1"><g transform="translate(960.249702, 84.391261)"><g><path d="M 25.671875 0 L 18.90625 0 L 18.90625 -51.90625 L 0.71875 -51.90625 L 0.71875 -57.84375 L 43.796875 -57.84375 L 43.796875 -51.90625 L 25.671875 -51.90625 Z M 25.671875 0 "/></g></g></g><g fill="#000000" fill-opacity="1"><g transform="translate(1021.086104, 84.391261)"><g><path d="M 73.625 -57.84375 L 58.15625 0 L 51.390625 0 L 39.921875 -38.9375 C 39.578125 -40.039062 39.253906 -41.148438 38.953125 -42.265625 C 38.648438 -43.390625 38.363281 -44.457031 38.09375 -45.46875 C 37.832031 -46.488281 37.613281 -47.390625 37.4375 -48.171875 C 37.269531 -48.953125 37.148438 -49.539062 37.078125 -49.9375 C 37.023438 -49.539062 36.925781 -48.957031 36.78125 -48.1875 C 36.632812 -47.425781 36.445312 -46.539062 36.21875 -45.53125 C 36 -44.53125 35.734375 -43.460938 35.421875 -42.328125 C 35.117188 -41.203125 34.800781 -40.054688 34.46875 -38.890625 L 23.296875 0 L 16.53125 0 L 1.1875 -57.84375 L 8.1875 -57.84375 L 17.484375 -21.5625 C 17.804688 -20.351562 18.101562 -19.160156 18.375 -17.984375 C 18.65625 -16.804688 18.90625 -15.664062 19.125 -14.5625 C 19.351562 -13.457031 19.554688 -12.375 19.734375 -11.3125 C 19.921875 -10.257812 20.097656 -9.234375 20.265625 -8.234375 C 20.390625 -9.253906 20.554688 -10.328125 20.765625 -11.453125 C 20.984375 -12.578125 21.21875 -13.71875 21.46875 -14.875 C 21.71875 -16.039062 21.992188 -17.210938 22.296875 -18.390625 C 22.597656 -19.578125 22.921875 -20.765625 23.265625 -21.953125 L 33.671875 -57.84375 L 40.59375 -57.84375 L 51.4375 -21.6875 C 51.800781 -20.445312 52.140625 -19.21875 52.453125 -18 C 52.773438 -16.789062 53.0625 -15.609375 53.3125 -14.453125 C 53.5625 -13.304688 53.785156 -12.210938 53.984375 -11.171875 C 54.179688 -10.128906 54.359375 -9.148438 54.515625 -8.234375 C 54.703125 -9.523438 54.925781 -10.878906 55.1875 -12.296875 C 55.457031 -13.722656 55.769531 -15.210938 56.125 -16.765625 C 56.476562 -18.328125 56.867188 -19.941406 57.296875 -21.609375 L 66.59375 -57.84375 Z M 73.625 -57.84375 "/></g></g></g><g fill="#000000" fill-opacity="1"><g transform="translate(1112.108828, 84.391261)"><g><path d="M 44.1875 0 L 37.078125 -18.359375 L 13.890625 -18.359375 L 6.8125 0 L 0 0 L 22.625 -58.078125 L 28.6875 -58.078125 L 51.15625 0 Z M 35.0625 -24.328125 L 28.296875 -42.578125 C 28.128906 -43.046875 27.867188 -43.820312 27.515625 -44.90625 C 27.160156 -45.988281 26.796875 -47.109375 26.421875 -48.265625 C 26.054688 -49.429688 25.753906 -50.367188 25.515625 -51.078125 C 25.253906 -49.992188 24.972656 -48.914062 24.671875 -47.84375 C 24.367188 -46.78125 24.070312 -45.789062 23.78125 -44.875 C 23.488281 -43.96875 23.238281 -43.203125 23.03125 -42.578125 L 16.140625 -24.328125 Z M 35.0625 -24.328125 "/></g></g></g><g fill="#000000" fill-opacity="1"><g transform="translate(1179.552224, 84.391261)"><g><path d="M 23.546875 -57.84375 C 28.285156 -57.84375 32.207031 -57.253906 35.3125 -56.078125 C 38.414062 -54.910156 40.726562 -53.125 42.25 -50.71875 C 43.78125 -48.320312 44.546875 -45.265625 44.546875 -41.546875 C 44.546875 -38.484375 43.992188 -35.929688 42.890625 -33.890625 C 41.785156 -31.847656 40.332031 -30.191406 38.53125 -28.921875 C 36.738281 -27.660156 34.828125 -26.6875 32.796875 -26 L 48.671875 0 L 40.828125 0 L 26.671875 -24.140625 L 14.640625 -24.140625 L 14.640625 0 L 7.90625 0 L 7.90625 -57.84375 Z M 23.140625 -52.03125 L 14.640625 -52.03125 L 14.640625 -29.828125 L 23.8125 -29.828125 C 28.539062 -29.828125 32.019531 -30.789062 34.25 -32.71875 C 36.476562 -34.644531 37.59375 -37.484375 37.59375 -41.234375 C 37.59375 -45.160156 36.410156 -47.941406 34.046875 -49.578125 C 31.679688 -51.210938 28.046875 -52.03125 23.140625 -52.03125 Z M 23.140625 -52.03125 "/></g></g></g><g fill="#000000" fill-opacity="1"><g transform="translate(1245.769144, 84.391261)"><g><path d="M 40.125 0 L 7.90625 0 L 7.90625 -57.84375 L 40.125 -57.84375 L 40.125 -51.90625 L 14.640625 -51.90625 L 14.640625 -33.203125 L 38.65625 -33.203125 L 38.65625 -27.34375 L 14.640625 -27.34375 L 14.640625 -5.9375 L 40.125 -5.9375 Z M 40.125 0 "/></g></g></g></g></g></svg>